<mxfile host="Electron" modified="2024-05-22T09:15:08.285Z" agent="Mozilla/5.0 (X11; Linux x86_64) AppleWebKit/537.36 (KHTML, like Gecko) draw.io/24.4.0 Chrome/120.0.6099.109 Electron/28.1.0 Safari/537.36" etag="cW0hnJE-5tSmkFbwJCQh" version="24.4.0" type="device">
  <diagram name="Page-1" id="z43Xu8vxVFHjTHn_sW6G">
    <mxGraphModel dx="1350" dy="1929" grid="1" gridSize="10" guides="1" tooltips="1" connect="1" arrows="1" fold="1" page="1" pageScale="1" pageWidth="850" pageHeight="1100" math="0" shadow="0">
      <root>
        <mxCell id="0" />
        <mxCell id="1" parent="0" />
        <mxCell id="QGXwp4BqyqiF3wftTZqM-1" value="" style="shape=image;aspect=fixed;image=data:image/png,iVBORw0KGgoAAAANSUhEUgAAAggAAABaCAYAAADdJa62AAAdbUlEQVR4Xu2dCXQVRbrH/yFAQAgZwhoCIaxBFiGAZAIPAQ0g5+CTecomINvoiAxbWAY4sigPZEDCsAqHGZYBRhaZkQHUPCbA0UfCZoBngrKEIMsEFAIhkIgIvPuV3ngTbu7tTtW93Z3+6hyPelNVXf2rf1d//dVXVQGPHAk2ShcvXkRERIRp75jbJ9c1zI/5yRGQK836Y35yBORKq9ZfABsIch2iurTqDub2qSYgVx/3L/OTIyBXmvXH/PQQsJ2BoAcO52UCTIAJMAEmYFcCbCDYtef5vpkAE2ACTIAJeCBgOwOBXWxyz4OZ+e3ZswdJSUkICQmRu0mX0rNmzVJWF1VkZn7cPrmuZv3J8WP9mY+f7QyE+Ph4LF68WL4nfq6ha9euOHDggLL6YmNjkZycrKw+1RWZ+QX39ttvIzExET179lR627Nnz1ZWH/VvSkqKsvpYf8pQSlfE+pNGCB7/5BiqHp9tZyDI4fdtaRpgKKn+avVtq81TO/OT6wvmx/zkCMiVZv3J8fNFaTYQfEG1hHXyA1JCcD8XY37MT46AXGnWH/OTI2C+0rYzEFS7YFR2KQ0wOTk5SEhIUFmt0rqYnxxO5sf85AjIlWb9lV5+dGeq+5cNBDm9KC3NBoIcTubH/OQIyJVm/TE/OQLypW1vIIS9fBSrJjTCi51C5WmarAZ2Ucp1CPNjfnIE5Eqz/pifHAHzlbacB4ENBPOJyCwt4gFarieYH/OTIyBXmvUnx88XpW1nIKh2wajsFHZRytFkfsxPjoBcadYf85MjIF9a9fvNEAPhdt4DjF9+HnsO3UT+Dw/RsUUwVo5vhIZhFQSh1LN3MGFFJk6cu4uGdSpgUr9wDIqrIf7m6kG4cftHdJ3wJZ5qWAkbpzdFmQDvgFUD9H5F7Tl4gNHOyl1O5sf85AjIlWb9MT85AvKlVb/fDDEQ3licgX3Hc7Dk9w1QsXwZTHz/AqqHlEXigha4/N0PiHr1C4x6MQz9u1XHfke+qWsuYOd/P4kXYkMLDIQuravguYnpiKwdhK0zo1A2UIN1IM/fpzWwi00OL/NjfnIE5Eqz/pifHAHzlTbEQOg87ks0qF0Bf53WRBDJ+Pf3OHfle/R8+leYsvoCDqbdxsFlTxXQil+Z6TAEKmDsf4UJA2Hh7yKxYmcWKjiMi/9xGBXlylrfOKCb5QFG7gFhfsxPjoBcadYf85MjYL7ShhgIW/Zdx/AFZxFRMwi9Y6uiR/uqiGsXgkDHHEGvqafQulElzH+tvltaZCD8cP8hAh0eg0oVyuDUuraoGFRGM1nVLhjNF9aQkV2UGiB5yML8mJ8cAbnSrD/mJ0dAvrTq95shBgJh+PbWfRGDkJR6CzsPZgujYH9CS4eBkI6YJ4Mxd2TxBkJsc4pZaIgWw4/j978Jw9vDIjSTVQ1Q84U1ZOQBRgMkNhDkIDE/5hehfbz0GSw3FfP4J09b9fvNEAOBphEGPlsD0U0qCSIUjBj9+gmc/HMb/HnPNaRl5mGfw1hwphEOb0PwE4GOmIWGhYIUV++6inHLM5G+LhqNHMGMVk/sopTrQebH/OQIyJVm/TE/OQLmK22IgdBl/Je4/+MjLHwj0hE/UAYrPsrCP5OzcXlbe2TduO/wDKRi8oBwvPxMdRw4mYOJjhgEClLs7RKkSBslPXwEdBh1ErVDy2H3vObmo6uzRTzA6ARWJDvzY35yBORKs/6YnxwB85U2xEA4n/U9xiw9j+T0XDx0vOXbNq0sYg5oaoES/T7p/Ux86fAk0Mt/cv9wvN67tvhb0Y2Sjnx9B78efRIfzXkS/9nR++6Kql0wKruUXWxyNJkf85MjIFea9cf85AjIl1b9fjPEQJDHUPIaVAMseUseL8kDjBxN5sf85AjIlWb9MT85AvKlVb/fbGcgyHeB72pgF6UcW+bH/OQIyJVm/TE/OQLmK80Ggon6hAcYuc5gfsxPjoBcadYf85MjYL7StjMQVLtgVHYpDTCJiYno2bOnsmpnzZqlrC6qyOz8cnJykJCQoPSeVVZmdn6sv5L3Nk8xlJwdleTxT46fL8ZnNhDk+0RZDXv27EFSUhJCQkKU1UkVzZ49W1l9sbGxSElJUVZf165dceDAAWX1TZgwgQ2EEtJk/ZUQnEsx1l/JGbL+Ss7OWVK1/mxnIMh3AdfABJgAE2ACTKD0E2ADofT3Md8hE2ACTIAJMAHdBGxnIJh5Dph6j9unW8OFCjA/5idHQK4064/5yRGQK61af2wgyPWH8tKqO1h1A7l9ckSZH/OTIyBXmvXH/PQQsJ2BoAcO52UCTIAJMAEmYFcCbCDYtef5vpkAE2ACTIAJeCBgOwOBXWxyzwPzY35yBORKs/6YnxwBudJ20x8bCHJ6UV7abgJUDZD5yRFlfsxPjoBcadafufjZzkCQw+/70s7tWulKbdu2xQsvvFDoort27UJqaqrmhqjeSVHzhTmjJQmw/izZbaWm0aw/c3Wl7QwEEqDKnQUjIyNx4cIFZb1K9Q0bNgwnTpxA+fLlsXXr1kJ19+/fH/fu3UN0dLTma6q836FDh2LDhg2ar+0tI9fnjZDnv6vm16dPH7Rp04b1V8JuUd0fdqtPi/7y8vJw584d0C6sznT//n0cPHjQ7W8qd2r1xXiv8v1BTPbv319C9T5ezHYGgqsL6+7du+jduzd2796NSpUqCTpG/7Zq1SpERUXh2rVraNSokXgQXFNwcDDOnTuHWrVqKROBnorIOAkKCtJTxK95uX1yuJ38SH+NGzdGbm4u608HUtafDlhusmrR3xtvvCE+8owYs53jsxneFe7eW67tk+uJn0rb1kAw2hAozii5ceMGIiIihKESHh6O9evXg6xqSp9++inmzZuHzz77TEXfl6gOHgBLhK2gkJX4PfPMM5g+fTqef/551p/GbrdS/2q8Jb9mc+WnRX/+Hsddx2ezfVzSO8XZPlWdZjsDwayWnzuDgdxF2dnZWLJkiejvcePGoXbt2pg2bZqq/ud6mECxBN59911cvXqV9ccaMYSAN/352zgwwmNREu+2ys6ynYFgJVHRVELfvn1x5swZ0edNmzbF9u3b0bp1a5Ua4LqYgFsCJ0+eZP2xNgwj4El/VhrH/WlYqO4syxsIsb//PwzoVh3jXqqjiU18fDzmzJljyPyVFmuwe/fu2Lt3b0H7aB54x44d4t5cjQVNN+uDTGZ2oVasWBG0yiMuLs7tnbdq1QppaWlu/0aBQvXr1/cBscJVmpkftbRo+5xGKevPuzS86Y9quHnzpvAE0jNerlw5jB07FpMmTfJeuaIcpUF/RhoHRcdnI9vibopjxowZSo+7t7yBsOwfWWjTuBI6t6qi6RGySpAi3QyJr1mzZvjtb38rVjS4uns13awPMpl5gPE2QFOUc9Ggz507d4KinJ2rRnyArFCVZubnzkBwTmvR31h/ntXhTX8Uad+uXTsRYzRlyhShOfpg2bhxIwYOHOhr6Yn6ra4/isEycu6fgxT9IlPjL2I2y6840dMAnZCQIIC5BowZT9B8LaABmgI5u3Tpoqlxt2/fRvPmzcVS0k6dOmkqY7dMzsBY1p/3nvemv23btmH06NG4fPlywUogWnb96NEjpUuvvbfUOjlc9UfGFMVjafHEGmlEmKF9qnpYuQdh7qbLOHbmDoLKBWDPoZuoGlwWfxgQjqebBePNP2Xg64v5iG5SCVtmRCG8enlxHycz7iJ+ZSa+cJSrWbW8mDKY+Wo9lA0MEH/flZKNmesu4vSlfNSqWk5MJ4z/eUpB7xQD1WcV48AptMqVKwsORb9+VYmgtNRDA/Rf/vIX8UWWkpIipgzIqKK9I9wlcu/SF9Xq1atLCwKf3AfrTxtWb/ojHdJ89Nq1a7VVyLkEAaf+Jk+eLKZj/Dmnb7V3hWrJ+MRAmLHuG0wZUBcjetXEio+yQNMALSKfwJqJjnXV+Q8wcM5pDO1ZE4tGNcDV7B/QZEgq+naphlEvhuHC1e8xZul5DOleEwvfiMTFb++hyeAvEN83HC89Uw37T+RgyuoLSF7+FGKbB0OvgXD69GnQOlozWHnuxOeufe3btxfuXfryMDqZ2UVJAzTt0UC7R3bs2FHEbixcuFDM9xaNS8jIyBDBnsSblpP6K5mZHzFw176YmBjxlXvkyBF/YSr2Ombm501/nTt3RocOHcSznJiYiCpVqmDkyJGYOnUqAgMD/cLWzPz06M+oF7fZ3x+qt6r2iYGwPvEazm5sJwR/Pec+avzmCD54KwoDnq0ufhv2x7O4+/0DbJ/VDLM3XMSWfddxan1blPnJYYBNe7/Da4vO4dauGPzvl7fRfXK6qK9RnQri7+SZaNngCdSvFaTbQLBakCI9CGFhYWIFw7Fjx/wyiHi6iJkHGBqgX3vtNSxdurTgFpxbVVPwomuiHepo06nly5f7lamZ+RU3QNNLLSAgAIcPH/YrK3cXMzM/b/qjDdDOnz8vghT79euH9PR08d8UWEZfx/5IZuanVX9GGQd0XQ5SlFQpTTH8K/UW9ie0FDU9ePgIZeOSkeL44v+144uf0oQVmbh8/Z4wEPq/cxpVKgUK74IzXXJ4DSIGHMPXG9oiomYQnpuYhtSzd9ErpiqejQ5Bn06hqOf4nZJeD4Lr7RkpND1zZEePHhXN5ikGz+KkAXrLli148cUXCzLSnOWyZcvE7pPOdOXKFTH9QAM0DdqcPBPgKQZtCvGmPzpbpVq1asKj5Uy0I+CmTZsK6VPb1eyTy1V/VhmzzeChVqEQn3gQ3BkIh1Y8hZgnHzcQ+r19GiGVCxsIV67/gLr9jiJtbbSYmnB4N3Ew7TYSj97CnsPZSM/Mw9aZUejzH9VKbCBYRWgcpKhd5u4GaPIQrFy5EqdOnSqoaP78+WL6wWl4ab+C/XJykKL2PvemP9qRkoJinUHHVDMFLpI3Kz8/X/uFbJSTgxRLdhSAKokYbiDMWn8R2w44phjWtXW4MX+6rQ/2fYfhfzyHnN0xDsMgF4e/ysW0V+oW3HOfGV85piMC8Pd3muk2EGiOhqx4PV/w/rQGi7aPguxo90RKvMzMuwfh9ddfL9j5j3LTNtUUl+B66BXthzBkyBCx1MzfyWouXl7mqF0hZCB40t/cuXPFKpvPP/+8oFJ6vj/++GOx5NEfycr6oyXJSUlJhgYpWuH9QctoVSXDDYSsGz8FKb7yXHW86QhSzHQEKb75p/MYHFdDBClSUGKcY4phyZiG6NYmBKe+ycPvEjIwqV84pg+qq9tAMHuQSdH28UY12qVOAzQF07333nsiSPHDDz/EggULcOjQIVCgJ6WsrCzUqVMHycnJiI2N1V65opxWG6BZf9o73pv+yMAnnrSvyeDBg0VM0fjx47FmzRoMGjRI+4UkcpYW/RnlATb7+8MSQYp6phhI68cd8QXx72ciVSxzLOcwFmpgxpBfljku2fFvLP17FmjqoXboT39/Z3iEWAapNwaB1h1bZakMb3WrbySkAZpiDtatWyfiC2gXSvpq69WrV0FFmzdvxogRI0B7IJj5VEp9d+6b3Kw/fVy16O/48ePCKKB/05cejUV0vDunxwkUpz96rs3qAaa7MMp4oevSxxGt4lKVlHsQVDXMH/UY2ZFaBE7GzCeffCK+gCnxYU3+UAVfw0nA22E5TIoJ+JKAO/2FhoaKnU/9Oe1r9Etfy7vC3btMRd/YzkBwumDMahzwcc9ysraaC1XubtWX1nvcrvoWeK6R+1eOuJX4uTvumfawIe+gUZsl8XHPcvozfWkrBJlQEGWPHj1ALraiSxtp7T4t2atVq5YhrK00wBgCyMtFrcLv2rVrYoomNze30B2x/tiA8eVz5Xw+tOjPiI88K7w/TB2k6EvxqKjbCFHpcVG99dZboHlyirSnOU3X6Huqh7ZrpYcoOjpaEw6V81GaLsiZLE2AprUoOQ+vYv1Zujst13it+mvZsqUYJym4k07FpESHYRX9jWI8SuqiN/u7wlfTCq6isd0UQ7du3cQclqoUGRkJOipYVaL6nKKnjVWcOwE666cdAVNTU3VdjjZjUZVozfaGDRtUVSfWgHN9Jcepmh8tC23Tpo1oEOtPf7+o7g+71adVfzSG0wFrTuOAeqq438w+3qt8f9BYr/Kj0HYGguplIPqHEM8luH1yRJkf85MjIFea9cf85AjIlVatPzYQ5PpDeWnVHay6gdw+OaLMj/nJEZArzfpjfnoI2M5A0AOH8zIBJsAEmAATsCsBNhDs2vN830yACTABJsAEPBCwnYHALja554H5MT85AnKlWX/MT46AXGm76Y8NBDm9KC9tNwGqBsj85IgyP+YnR0CuNOvPXPxsZyDI4efSTIAJMAEmwATsQYANBHv0M98lE2ACTIAJMAFdBGxnIJjdhRUfH4+QkBDRiSo2qlG5aQa1yez8uH26nv/HMrP+5Pix/uT4sf7k+KnWn+0MBBLg4sWL5XrBpbTqnRTr1q0rzotXtdUtNVXlTopDhgzBxo0blfFTvVMct0+ua2jnznbt2rH+SoiR9VdCcD8X06K/vLw8cUZN165dCy5G2ywfPHjQ7W8qd1Kk8fny5ctyN+nD90dsbCySk5OVtc92BoIrOTPvtU2HlTRq1Mh0hzUpUx5XZGoCWg7LMfUNcOMsTcCT/uhER/roMepER6tcV4UAbGsgmNk4oI6l9oWHh2P9+vWg/ckpffrpp5g3bx4+++wzFX3PdTABjwTcHbfL+mPR+IuAFv1ZYRw34rAoVX1kOwPBCsd10nHPJCpyoWVnZ2PJkiWiv8eNG4fatWtj2rRpqvpfdz1WOa5Y9435qYCV+L377ru4evUq60+HNqzUvzpuy29ZXfl5058RxoEV3h983LOEXE+fPg1yUe3evduULirX9p07dw59+/bFmTNnxB03bdoU27dvR+vWrSUIyBXlAdA+/E6ePMn609nd/HzoBFYkuys/T/ozwjigppr9/VHqghQTj97CgDmncfOfMXLK0liazhunM8KtMo/UuHFj7NixQ9ydq7Gg8XZtla1ixYpiGqZLly5u77tVq1ZIS0tz+zc6crV+/fq24qXlZp1GKevPOy1v+qMabt68KTyBe/fuFUcVjx07VoxHnNwTcKc/o4wDK1z3vffeK13HPZ++lI9Ne7/DnBERfn9GrNDhzZo1E6saypcvX8jd63dYFrigtwGaopwp+tk17dy5U5wj71w1YoHb9GsTndNadFHX6Qa/NsIiF/OmP4q0pxUi5AKeMmWK0BytqqJVQQMHDrTIXfq3mUX1RzEwRszpW+FdUZSLip6yZQwCPaBm7fAbN26IAcTZPnpAEhISRF9Pnz4dzz//vIp+L3EdZnah0gC9a9cuxMXFabq/27dvo3nz5ti6dSs6deqkqYxsJjPzo3sr2j5nYCzrz3vPe9Pftm3bMHr0aLFMLigoSFRIHs1Hjx4pXYrsqaVW1h8ZUxSPZeT0cNHx2ci2uPOCO9vnXa3acig3EOZuuoxjZ+4gqFwA9hy6iarBZfGHAeF4ulkw3vxTBr6+mI/oJpWwZUYUwquXR9Ephl0p2Zi57iLIs1CrajmMe6kOxjv+ofTjg0eYs/ES/pb0Hb67dR9tm1RGwpsN0KZxJW1368hlhSATZ5CiU3yVK1cW91f061fzTSvMaOYBhgboVatWYcuWLUhJSRFTBmRU9e/f3y0Bcu/S/axevVohIc9VmZmfOwOBfmP9aZOHN/2RDmlQX7t2rbYKfZDLyvqbPHmy4dPDVnh/mDpIkQyEGeu+wZQBdTGiV02s+CgLy/6RhRaRT2DNxMbIzX+AgY6Yg6E9a2LRqAaFDISL395Dk8FfIL5vOF56phr2n8jBlNUXkLz8KcQ2D8bkVRewce+3WDqmIRqEVcD7O7Ow7cANZGxuJ4wJLcmsngNPMRHt27cX7l2VG3RoYWW1PDRA05cZ7R7ZsWNHEbuxcOFCMd9b1KuQkZEhgj0p6IiWk3IqnkBMTIz4yj1y5Ahj8kDAm/46d+6MDh06iGc5MTERVapUwciRIzF16lQEBgYy22IIuNOfFcdxf7RZtYh84kFYn3gNZze2E229nnMfNX5zBB+8FYUBz1YXvw3741nc/f4Bts9qVshASEq9he6T00XZRnUqiLzkhWjZ4AnUDi2HkN6HsXZKY7zyXA3xt4ePgCeHpmJQXA3MfLWeJjZWC1IkUYWFhYkVDMeOHdN0j3bNRAM0rVBx3SmTdmajRFMProl2cAwODsby5cvtikvzfdNLLSAgAIcPH9Zcxo4ZvekvKioK58+fF0GK/fr1Q3p6uvjvGTNmgL6OObknUFR//njRWvUapg9SJA/Cvxwv+v0JLUVvP3C8xcvGJSPF4QX4tcMLQGnCikxcvn7vMQMh/95DPDcxDaln76JXTFU8Gx2CPp1CUa9mEL76Jh/Nh6fi8ranxdSEM41ceA559x4IA0RLcl0GYkYRkIucBhJKzvYdPXpU/D9PMXjuYRqgKeDr5ZdfLshIc5bLli0DLRl1pitXrojpBxqgnay1aEdFHiu7eFl/cvqjs1Vo+pA8Ws5EOwJu2rSpkD5V6Ky4OqyuP6PHbHfjs5niEFzbp0JHPvEguDMQDq14CjFPejYQ6IYcnkwcTLstPAt7DmcjPTMPW2dGoWm9imgx/PhjBsJri87h1p0fhbGhJTkNBKOFVpyoOEhRSy+6z+POQCAPwcqVK3Hq1KmCQvPnzxfTD07Dq+RX1F/SagM0Bylq72Nv+qMAYwqKdQYdU80UuEjerPz8fO0XkshpZf1xkOIvH43e3h8SEilU1FQGwr7jOTj8VS6mvVK3oJF9ZnyFMg735t/eaopfvXAY6//QpGCqgoyJFiNS0a9rdcweqn2ZpFmNA3dxCBRkR7snUuJlZt6/4EaNGlVoAKZtqikugVYqOBPth0CH6tBSM06eCfAyR+0KIQPBk/7mzp0r9un4/PPPCyql5/vjjz8WSx45PU7AVX+0JDkpKckye9gY9Z5RqSNTGQgUlBjnmGJY4ghC7NYmBKe+ycPvEjIwqV84pg+qi4nvZ+KDfdexYpwjSLF2BaxwBClucfz/2Y1tHTEKv0w7eAJkVKeV9Lq8UY12udMATcF0NA9HQYoffvghFixYgEOHDoECPSllZWWhTp064sQzOvmMk2cCrD/tCvGmPzLwiSftazJ48GARUzR+/HisWbMGgwYN0n4hG+UsTn8lHU8JXWkuq1oapjIQ6OaW7Pg3lv49C1eu/yACEykg8Z3hESgbGCCWOb7z11+WObZrqn+ZI7mp5syZY1ortHv37mKOkrwJvNWtPrnTAL1o0SIRh0DxBbQLJX219erVq6CizZs3Y8SIEaA9EJxr0fVdRS63lVy8rD99fa1Ff8ePHxdGAf2blqPRLorDhg3TdyGJ3KVBf/RcG7VZkuv4bEZjgwJeXaewJKQiiio3EGQb5OvyVgpSpBUXn3zyifgCpsSHNXlXh5UGQO934/8ceg7L8X/rHt/IyYg2eLom60+uR7zpLzQ0VOx8alRgIAcpyvWvZUpbwc3Exz1bRk6lsqFajtstlTfON2UKAu70R8uYyTtolbN0jHrPqOpA23kQzOgWcucu69Gjh5hiKLq0jNbu05K9WrVqqdIA18MEHiNw7do1MUWTm5tb6G+sPxaLPwho0Z9RL1+zX1dl/9jOQDD7cZ1jxowR7jOKtKc5Tdfoe+p42q6V3HDR0dGadEC7CqpM7EKVo2l2fjSHWbZs2YLDq1h/+vrb7P1r9vZp1V/Lli1B8UQU3EmnYlKiw7CK/kYxHirjFcz+/ih1xz3re/zkc1N0O+3TrypFRkaCjgpWlerVq4dXX31ViJ42VnHuBOisn3YETE1N1XU52oxFVaLlgRQEqCrRGvANGzaoqk4sX+T2lRwn6Y1OHKTE+tPPkfWnn5lrCa36ozgEOmDNaRxQHcX9Rr+rSjQ+X7p0SVV1UP3+mDBhAgcpKusdrogJMAEmwASYABNwS8B2UwysAybABJgAE2ACTMA7AdsZCKrnaLwj1peD26ePV9HczI/5yRGQK836Y35yBORKq9YfGwhy/aG8tOoOVt1Abp8cUebH/OQIyJVm/TE/PQT+H2/tWTwOGj6BAAAAAElFTkSuQmCC;" vertex="1" parent="1">
          <mxGeometry x="10" y="10" width="520" height="90" as="geometry" />
        </mxCell>
        <mxCell id="QGXwp4BqyqiF3wftTZqM-2" value="&lt;font style=&quot;font-size: 17px;&quot;&gt;Master and Slave&amp;nbsp;&lt;/font&gt;&lt;div&gt;&lt;font style=&quot;font-size: 17px;&quot;&gt;drive output&lt;/font&gt;&lt;div style=&quot;font-size: 17px;&quot;&gt;&lt;font style=&quot;font-size: 17px;&quot;&gt;at SCK falling edge&lt;/font&gt;&lt;/div&gt;&lt;/div&gt;" style="endArrow=classic;html=1;rounded=0;" edge="1" parent="1">
          <mxGeometry x="-1" y="-20" width="50" height="50" relative="1" as="geometry">
            <mxPoint x="114" y="159" as="sourcePoint" />
            <mxPoint x="114" y="109" as="targetPoint" />
            <mxPoint x="-20" y="20" as="offset" />
          </mxGeometry>
        </mxCell>
        <mxCell id="QGXwp4BqyqiF3wftTZqM-3" value="" style="endArrow=none;html=1;rounded=0;" edge="1" parent="1">
          <mxGeometry width="50" height="50" relative="1" as="geometry">
            <mxPoint x="190" y="120" as="sourcePoint" />
            <mxPoint x="190" y="-10" as="targetPoint" />
          </mxGeometry>
        </mxCell>
        <mxCell id="QGXwp4BqyqiF3wftTZqM-4" value="&lt;font style=&quot;font-size: 18px;&quot;&gt;Master and Slave&amp;nbsp;&lt;/font&gt;&lt;div&gt;&lt;font style=&quot;font-size: 18px;&quot;&gt;sample input&amp;nbsp;&lt;/font&gt;&lt;div&gt;&lt;font style=&quot;font-size: 18px;&quot;&gt;at SCK rising edge&lt;/font&gt;&lt;/div&gt;&lt;/div&gt;" style="endArrow=classic;html=1;rounded=0;" edge="1" parent="1">
          <mxGeometry x="-1" y="-72" width="50" height="50" relative="1" as="geometry">
            <mxPoint x="250" y="140" as="sourcePoint" />
            <mxPoint x="190" y="100" as="targetPoint" />
            <mxPoint x="20" y="100" as="offset" />
          </mxGeometry>
        </mxCell>
      </root>
    </mxGraphModel>
  </diagram>
</mxfile>
